<mxfile host="app.diagrams.net" modified="2023-04-01T15:03:07.669Z" agent="5.0 (Windows NT 10.0; Win64; x64) AppleWebKit/537.36 (KHTML, like Gecko) Chrome/111.0.0.0 Safari/537.36" etag="81LCJynZORDzXgy2ksu-" version="21.0.2" type="github">
  <diagram id="C5RBs43oDa-KdzZeNtuy" name="Page-1">
    <mxGraphModel dx="1434" dy="756" grid="1" gridSize="10" guides="1" tooltips="1" connect="1" arrows="1" fold="1" page="1" pageScale="1" pageWidth="827" pageHeight="1169" math="0" shadow="0">
      <root>
        <mxCell id="WIyWlLk6GJQsqaUBKTNV-0" />
        <mxCell id="WIyWlLk6GJQsqaUBKTNV-1" parent="WIyWlLk6GJQsqaUBKTNV-0" />
        <mxCell id="6sigm9hNixch7Fj4dPni-3" value="DB" style="swimlane;whiteSpace=wrap;html=1;" vertex="1" parent="WIyWlLk6GJQsqaUBKTNV-1">
          <mxGeometry x="520" y="40" width="280" height="270" as="geometry" />
        </mxCell>
        <mxCell id="6sigm9hNixch7Fj4dPni-4" value="Item" style="swimlane;whiteSpace=wrap;html=1;" vertex="1" parent="6sigm9hNixch7Fj4dPni-3">
          <mxGeometry x="20" y="40" width="110" height="90" as="geometry" />
        </mxCell>
        <mxCell id="6sigm9hNixch7Fj4dPni-6" value="Item" style="swimlane;whiteSpace=wrap;html=1;" vertex="1" parent="WIyWlLk6GJQsqaUBKTNV-1">
          <mxGeometry x="550" y="90" width="110" height="90" as="geometry" />
        </mxCell>
        <mxCell id="6sigm9hNixch7Fj4dPni-7" value="Item" style="swimlane;whiteSpace=wrap;html=1;" vertex="1" parent="WIyWlLk6GJQsqaUBKTNV-1">
          <mxGeometry x="560" y="100" width="110" height="90" as="geometry" />
        </mxCell>
        <mxCell id="6sigm9hNixch7Fj4dPni-8" value="Item" style="swimlane;whiteSpace=wrap;html=1;" vertex="1" parent="WIyWlLk6GJQsqaUBKTNV-1">
          <mxGeometry x="570" y="110" width="110" height="90" as="geometry" />
        </mxCell>
        <mxCell id="6sigm9hNixch7Fj4dPni-9" value="Item" style="swimlane;whiteSpace=wrap;html=1;" vertex="1" parent="WIyWlLk6GJQsqaUBKTNV-1">
          <mxGeometry x="580" y="120" width="110" height="90" as="geometry" />
        </mxCell>
        <mxCell id="6sigm9hNixch7Fj4dPni-10" value="Item" style="swimlane;whiteSpace=wrap;html=1;" vertex="1" parent="WIyWlLk6GJQsqaUBKTNV-1">
          <mxGeometry x="590" y="130" width="110" height="90" as="geometry" />
        </mxCell>
        <mxCell id="6sigm9hNixch7Fj4dPni-11" value="Item" style="swimlane;whiteSpace=wrap;html=1;" vertex="1" parent="WIyWlLk6GJQsqaUBKTNV-1">
          <mxGeometry x="600" y="140" width="110" height="90" as="geometry" />
        </mxCell>
        <mxCell id="6sigm9hNixch7Fj4dPni-12" value="Item" style="swimlane;whiteSpace=wrap;html=1;" vertex="1" parent="WIyWlLk6GJQsqaUBKTNV-1">
          <mxGeometry x="610" y="150" width="110" height="90" as="geometry" />
        </mxCell>
        <mxCell id="6sigm9hNixch7Fj4dPni-13" value="Item" style="swimlane;whiteSpace=wrap;html=1;" vertex="1" parent="WIyWlLk6GJQsqaUBKTNV-1">
          <mxGeometry x="620" y="160" width="110" height="90" as="geometry" />
        </mxCell>
        <mxCell id="6sigm9hNixch7Fj4dPni-14" value="Item" style="swimlane;whiteSpace=wrap;html=1;" vertex="1" parent="WIyWlLk6GJQsqaUBKTNV-1">
          <mxGeometry x="630" y="170" width="110" height="90" as="geometry" />
        </mxCell>
        <mxCell id="6sigm9hNixch7Fj4dPni-15" value="Item" style="swimlane;whiteSpace=wrap;html=1;" vertex="1" parent="WIyWlLk6GJQsqaUBKTNV-1">
          <mxGeometry x="640" y="180" width="110" height="90" as="geometry" />
        </mxCell>
        <mxCell id="6sigm9hNixch7Fj4dPni-16" value="Item" style="swimlane;whiteSpace=wrap;html=1;" vertex="1" parent="WIyWlLk6GJQsqaUBKTNV-1">
          <mxGeometry x="650" y="190" width="110" height="90" as="geometry" />
        </mxCell>
      </root>
    </mxGraphModel>
  </diagram>
</mxfile>
